<?xml version="1.0" encoding="utf-8"?>
<!-- Generator: Adobe Illustrator 18.1.1, SVG Export Plug-In . SVG Version: 6.00 Build 0)  -->
<svg version="1.1" xmlns="http://www.w3.org/2000/svg" xmlns:xlink="http://www.w3.org/1999/xlink" x="0px" y="0px"
	 viewBox="0 0 1000 1000" enable-background="new 0 0 1000 1000" xml:space="preserve">
<g id="Layer_2">
</g>
<g id="Layer_1">
	<g>
		<g>
			<g>
				<g>
					<defs>
						<path id="SVGID_13_" d="M680.7-381v124.3l577.7,78l-40.9-59.2l48.9-51L680.7-381z M510.7-440.7l861.1,63.4v-124.3L510.6-631.8
							L510.7-440.7z M1545.5-813.6L684.4-877v124.3l861.3,130.2L1545.5-813.6z M1375.5-873.3v-124.3l-577.7-78l40.9,59.2l-49,51
							L1375.5-873.3z"/>
					</defs>
					<clipPath id="SVGID_2_">
						<use xlink:href="#SVGID_13_"  overflow="visible"/>
					</clipPath>
					<g clip-path="url(#SVGID_2_)">
						<polygon fill="#F2F2F2" points="1803.2,-661.4 995.2,149.7 997.6,152.1 1805.7,-658.9 						"/>
						<polygon fill="#F2F2F2" points="979.8,134.2 982.2,136.6 1790.3,-674.4 1787.9,-676.8 						"/>
						<polygon fill="#F2F2F2" points="964.4,118.7 966.8,121.2 1774.9,-689.8 1772.5,-692.2 						"/>
						<polygon fill="#F2F2F2" points="949,103.3 951.4,105.7 1759.5,-705.3 1757.1,-707.7 						"/>
						<polygon fill="#F2F2F2" points="933.6,87.9 936,90.3 1744.1,-720.7 1741.7,-723.1 						"/>
						<polygon fill="#F2F2F2" points="918.2,72.4 920.6,74.8 1728.7,-736.2 1726.3,-738.6 						"/>
						<polygon fill="#F2F2F2" points="902.8,56.9 905.2,59.4 1713.3,-751.6 1710.9,-754.1 						"/>
						<polygon fill="#F2F2F2" points="887.4,41.5 889.8,43.9 1697.9,-767.1 1695.5,-769.5 						"/>
						<polygon fill="#F2F2F2" points="872,26 874.4,28.5 1682.5,-782.5 1680.1,-785 						"/>
						<polygon fill="#F2F2F2" points="856.6,10.6 859,13 1667.1,-798 1664.7,-800.4 						"/>
					</g>
				</g>
			</g>
		</g>
	</g>
	<g>
		<g>
			<g>
				<g>
					<polygon fill="#004366" points="698.4,781.6 210.8,704.9 210.8,808.4 691.7,873.3 657.7,824 					"/>
					<polygon fill="#004366" points="69.2,655.2 786.2,708 786.2,604.5 69.1,496.1 					"/>
					<polygon fill="#004366" points="930.8,344.8 213.8,292 213.8,395.5 930.9,503.9 					"/>
					<polygon fill="#004366" points="301.6,218.4 789.2,295.1 789.2,191.6 308.3,126.7 342.3,176 					"/>
				</g>
				<g>
					<defs>
						<path id="SVGID_15_" d="M210.8,704.9v103.5l481,64.9L657.7,824l40.8-42.5L210.8,704.9z M69.2,655.2l717,52.8V604.5L69.1,496.1
							L69.2,655.2z M930.8,344.8l-717-52.8v103.5l717.1,108.4L930.8,344.8z M789.2,295.1V191.6l-481-64.9l34.1,49.3l-40.8,42.5
							L789.2,295.1z"/>
					</defs>
					<clipPath id="SVGID_3_">
						<use xlink:href="#SVGID_15_"  overflow="visible"/>
					</clipPath>
					<g clip-path="url(#SVGID_3_)">
						<polygon fill="#F2F2F2" points="1145.4,471.5 472.6,1146.8 474.6,1148.8 1147.4,473.5 						"/>
						<polygon fill="#F2F2F2" points="459.8,1133.9 461.8,1135.9 1134.6,460.7 1132.6,458.7 						"/>
						<polygon fill="#F2F2F2" points="446.9,1121 448.9,1123.1 1121.8,447.8 1119.8,445.8 						"/>
						<polygon fill="#F2F2F2" points="434.1,1108.2 436.1,1110.2 1108.9,435 1106.9,432.9 						"/>
						<polygon fill="#F2F2F2" points="421.3,1095.3 423.3,1097.3 1096.1,422.1 1094.1,420.1 						"/>
						<polygon fill="#F2F2F2" points="408.5,1082.5 410.5,1084.5 1083.3,409.2 1081.3,407.2 						"/>
						<polygon fill="#F2F2F2" points="395.6,1069.6 397.7,1071.6 1070.5,396.3 1068.5,394.3 						"/>
						<polygon fill="#F2F2F2" points="382.8,1056.7 384.8,1058.7 1057.7,383.5 1055.7,381.5 						"/>
						<polygon fill="#F2F2F2" points="370,1043.9 372,1045.9 1044.9,370.6 1042.9,368.6 						"/>
						<polygon fill="#F2F2F2" points="357.2,1031 359.2,1033 1032,357.7 1030,355.7 						"/>
						<polygon fill="#F2F2F2" points="344.4,1018.1 346.4,1020.1 1019.2,344.9 1017.2,342.9 						"/>
						<polygon fill="#F2F2F2" points="331.6,1005.3 333.6,1007.3 1006.4,332 1004.4,330 						"/>
						<polygon fill="#F2F2F2" points="318.7,992.4 320.7,994.4 993.6,319.1 991.6,317.1 						"/>
						<polygon fill="#F2F2F2" points="305.9,979.5 307.9,981.5 980.8,306.3 978.8,304.3 						"/>
						<polygon fill="#F2F2F2" points="293.1,966.7 295.1,968.7 967.9,293.4 965.9,291.4 						"/>
						<polygon fill="#F2F2F2" points="280.3,953.8 282.3,955.8 955.1,280.6 953.1,278.5 						"/>
						<polygon fill="#F2F2F2" points="267.5,940.9 269.5,943 942.3,267.7 940.3,265.7 						"/>
						<polygon fill="#F2F2F2" points="254.6,928.1 256.7,930.1 929.5,254.8 927.5,252.8 						"/>
						<polygon fill="#F2F2F2" points="241.8,915.2 243.8,917.2 916.7,242 914.7,239.9 						"/>
						<polygon fill="#F2F2F2" points="229,902.3 231,904.3 903.8,229.1 901.8,227.1 						"/>
						<polygon fill="#F2F2F2" points="216.2,889.5 218.2,891.5 891,216.2 889,214.2 						"/>
						<polygon fill="#F2F2F2" points="203.4,876.6 205.4,878.6 878.2,203.4 876.2,201.4 						"/>
						<polygon fill="#F2F2F2" points="190.5,863.7 192.5,865.8 865.4,190.5 863.4,188.5 						"/>
						<polygon fill="#F2F2F2" points="177.7,850.9 179.7,852.9 852.6,177.6 850.6,175.6 						"/>
						<polygon fill="#F2F2F2" points="164.9,838 166.9,840 839.7,164.8 837.7,162.7 						"/>
						<polygon fill="#F2F2F2" points="152.1,825.1 154.1,827.2 826.9,151.9 824.9,149.9 						"/>
						<polygon fill="#F2F2F2" points="139.3,812.3 141.3,814.3 814.1,139 812.1,137 						"/>
						<polygon fill="#F2F2F2" points="126.4,799.4 128.4,801.4 801.3,126.2 799.3,124.1 						"/>
						<polygon fill="#F2F2F2" points="113.6,786.5 115.6,788.6 788.5,113.3 786.5,111.3 						"/>
						<polygon fill="#F2F2F2" points="100.8,773.7 102.8,775.7 775.6,100.4 773.6,98.4 						"/>
						<polygon fill="#F2F2F2" points="88,760.8 90,762.8 762.8,87.6 760.8,85.6 						"/>
						<polygon fill="#F2F2F2" points="75.2,747.9 77.2,750 750,74.7 748,72.7 						"/>
						<polygon fill="#F2F2F2" points="62.3,735.1 64.3,737.1 737.2,61.8 735.2,59.8 						"/>
						<polygon fill="#F2F2F2" points="49.5,722.2 51.5,724.2 724.4,49 722.4,47 						"/>
						<polygon fill="#F2F2F2" points="36.7,709.4 38.7,711.4 711.5,36.1 709.5,34.1 						"/>
						<polygon fill="#F2F2F2" points="23.9,696.5 25.9,698.5 698.7,23.2 696.7,21.2 						"/>
						<polygon fill="#F2F2F2" points="11.1,683.6 13.1,685.6 685.9,10.4 683.9,8.4 						"/>
						<polygon fill="#F2F2F2" points="-1.8,670.8 0.3,672.8 673.1,-2.5 671.1,-4.5 						"/>
						<polygon fill="#F2F2F2" points="-14.6,657.9 -12.6,659.9 660.3,-15.4 658.3,-17.4 						"/>
						<polygon fill="#F2F2F2" points="-27.4,645 -25.4,647 647.5,-28.2 645.4,-30.2 						"/>
						<polygon fill="#F2F2F2" points="-40.2,632.2 -38.2,634.2 634.6,-41.1 632.6,-43.1 						"/>
						<polygon fill="#F2F2F2" points="-53,619.3 -51,621.3 621.8,-54 619.8,-56 						"/>
						<polygon fill="#F2F2F2" points="-65.9,606.4 -63.8,608.4 609,-66.8 607,-68.8 						"/>
						<polygon fill="#F2F2F2" points="-78.7,593.6 -76.7,595.6 596.2,-79.7 594.2,-81.7 						"/>
						<polygon fill="#F2F2F2" points="-91.5,580.7 -89.5,582.7 583.3,-92.6 581.3,-94.6 						"/>
						<polygon fill="#F2F2F2" points="-104.3,567.8 -102.3,569.8 570.5,-105.4 568.5,-107.4 						"/>
						<polygon fill="#F2F2F2" points="-117.1,555 -115.1,557 557.7,-118.3 555.7,-120.3 						"/>
						<polygon fill="#F2F2F2" points="-129.9,542.1 -127.9,544.1 544.9,-131.1 542.9,-133.2 						"/>
						<polygon fill="#F2F2F2" points="-142.8,529.2 -140.8,531.2 532.1,-144 530.1,-146 						"/>
					</g>
				</g>
				<g>
					<path fill="#004366" d="M731,769l-536.5-77.6l-0.1,136.4l530.9,65.8l-47.2-68.3L731,769z M691.7,873.3l-481-64.9V704.9
						l487.7,76.6L657.7,824L691.7,873.3z"/>
					<path fill="#004366" d="M52.8,482.4l0.1,193l749.5,44.8V585.2L52.8,482.4z M786.2,708l-717-52.8l-0.1-159.1l717.1,108.4V708z"
						/>
					<path fill="#004366" d="M274.6,106.5l47.2,68.3L269,231l536.5,77.6l0.1-136.4L274.6,106.5z M789.2,295.1l-487.7-76.6l40.8-42.5
						l-34.1-49.3l481,64.9V295.1z"/>
					<path fill="#004366" d="M947.1,324.6l-749.5-44.8l0,135.1l749.6,102.7L947.1,324.6z M213.8,395.5V292l717,52.8l0.1,159.1
						L213.8,395.5z"/>
				</g>
				<g>
					<polygon fill="#00A7FF" points="786.2,708 786.2,604.5 210.8,704.9 210.8,808.4 					"/>
					<polygon fill="#FFF4E6" points="69.1,496.1 930.8,344.8 930.9,503.9 69.1,655.1 					"/>
					<polygon fill="#00A7FF" points="213.8,292 213.8,395.5 789.2,295.1 789.2,191.6 					"/>
				</g>
				<g>
					<path fill="#004366" d="M194.5,691.2v136.5l607.9-106V585.2L194.5,691.2z M786.2,708L210.8,808.4V704.9l575.4-100.4V708z"/>
					<path fill="#004366" d="M947,325.4l-894.2,157v192l894.3-156.9L947,325.4z M69.1,655.1v-159l861.8-151.4l0.1,159.1L69.1,655.1z
						"/>
					<path fill="#004366" d="M197.6,278.3v136.5l607.9-106.1V172.2L197.6,278.3z M789.2,295.1L213.8,395.5V292l575.4-100.4V295.1z"
						/>
				</g>
			</g>
		</g>
		<g>
			<path fill-rule="evenodd" clip-rule="evenodd" fill="#ED2C3A" d="M340.1,542.1l28.6-5.1c0,0-3.6-13.3-16.5-11
				S340.1,542.1,340.1,542.1L340.1,542.1L340.1,542.1z M349.6,509.6c38.5-6.9,43.6,30.9,43.6,30.9l1.1,5.9l-52.2,9.4
				c1.5,8.5,10,14.6,19.7,12.8c9.7-1.7,13-12,13-12l20.1,5.8c-6.2,14.4-16.8,21.7-29.7,24c-40.1,7.2-46.9-26-47.6-30.1
				C316.9,552.2,311.1,516.6,349.6,509.6L349.6,509.6L349.6,509.6z M445.4,550.4L445.4,550.4c-1.2,0.2-16,3.1-19.3-15.2
				c-3.3-18.3,12.9-21.8,12.9-21.8s18.4-2.7,21.6,15.2C463.7,546.5,446.6,550.2,445.4,550.4L445.4,550.4L445.4,550.4z M444.4,444.6
				l9.9,55c0,0-12.6-6.5-25.3-4.2c-12.7,2.3-32.5,15.1-27.4,43.2c5.1,28.2,25.2,35.6,40.9,32.8c15.7-2.8,22.5-14.7,22.5-14.7
				l1.6,9.2l22.6-4.1l-21.8-121.3L444.4,444.6L444.4,444.6z M606,467.4l23-4.1l7.3,40.7c0,0,3.3,13.5,16.2,11.2
				c12.9-2.3,10.2-16,10.2-16l-7.3-40.5l23.2-4.2l7.5,41.9c0,0,8.9,32.2-29.4,39.1c-38.3,6.9-42.5-22.1-43.4-27.2
				C612.4,503.1,606,467.4,606,467.4L606,467.4L606,467.4z M682.9,401.7l22.7-4.1l21.8,121.3l-22.7,4.1L682.9,401.7L682.9,401.7z
				 M721.5,394.8l22.4-4L765.8,512l-22.4,4L721.5,394.8L721.5,394.8z M569,526.5L569,526.5l-21.5,3.9l-13.6-75.9l11.5-2.1
				c0,0,15.4-4,17.9,9.6c2.5,13.6-10.2,14.7-10.2,14.7l-7.2,1.3l3.7,20.4c0,0,10.3-1.9,14-2.5c3.7-0.7,15.7-1,18.1,12.5
				C584,521.8,569,526.5,569,526.5L569,526.5L569,526.5z M580.6,480c0,0,9-10.1,6.3-25.6c-2.8-15.5-16.6-27.5-40.5-23.1
				c-24,4.3-40.2,7.2-40.2,7.2l21,116.5l49.5-8.9c0,0,35.4-6.8,29.6-38.8C602.8,488.7,594.3,482.8,580.6,480L580.6,480L580.6,480z
				 M219.7,487.5L241,606.4l24-4.3l-17.3-96.3l11.3-2c0,0,17.5-4,20.4,12.1c2.9,16.1-12.9,18.5-12.9,18.5l-5.8,1l4.9,27.4l30.8,33.6
				l28.2-5.1l-42.3-42.6c0,0,27.1-7.3,21.8-37.3c-5.4-30-27.7-34.2-55.4-29.2C221,487.2,219.7,487.5,219.7,487.5L219.7,487.5
				L219.7,487.5z"/>
		</g>
		
			<text transform="matrix(0.9843 -0.1763 0.1763 0.9843 408.332 338.1437)" fill="#FFFFFF" font-family="'Futura-MediumItalic'" font-size="66.6099">JEFF’S</text>
		
			<text transform="matrix(0.9878 -0.1557 0.1557 0.9878 376.6766 751.4784)" fill="#FFFFFF" font-family="'Futura-MediumItalic'" font-size="66.61">COUNT</text>
		<polygon fill-rule="evenodd" clip-rule="evenodd" fill="#004366" points="152.3,534.5 158.3,549.7 173.9,545 165.8,559.1 
			179.2,568.3 163.1,570.8 164.3,587.1 152.3,576 140.3,587.1 141.5,570.8 125.3,568.3 138.8,559.1 130.7,545 146.3,549.7 		"/>
		<polygon fill-rule="evenodd" clip-rule="evenodd" fill="#004366" points="846.7,410.5 852.7,425.7 868.3,420.9 860.2,435.1 
			873.7,444.3 857.5,446.7 858.7,463 846.7,452 834.7,463 835.9,446.7 819.7,444.3 833.2,435.1 825.1,420.9 840.7,425.7 		"/>
	</g>
</g>
</svg>
