<?xml version="1.0" encoding="utf-8"?>
<!-- Generator: Adobe Illustrator 18.1.1, SVG Export Plug-In . SVG Version: 6.00 Build 0)  -->
<svg version="1.1" xmlns="http://www.w3.org/2000/svg" xmlns:xlink="http://www.w3.org/1999/xlink" x="0px" y="0px"
	 viewBox="0 0 500 1000" enable-background="new 0 0 500 1000" xml:space="preserve">
<g id="Layer_2">
</g>
<g id="Layer_1">
	<path opacity="0.75" d="M417,926c0-31,0-638.8,0-806.7c0-0.1,0-0.1,0-0.2c0-0.6,0-2.9,0-10.1c0-7.5-4-20-7.3-29h7.3V63H74v17h6.9
		c-4.3,9-6.9,16.6-6.9,29c0,5.7,0,8.6,0,10.1c0,0.9,0,1.2,0,1.2C74,294,74,926,74,926l1.3,0c1.7,1.3,10.5,8.8,10.5,20.3l-0.2,4.7
		h109.3h101.1h109.3l-0.2-4.7c0-9.8,7.6-16.7,11.1-19.3l0.7,0c0,0,0-0.2,0-0.5c0.6-0.4,1-0.5,1-0.5H417z M246,575
		c-38.7,0-70-31.3-70-70c0-38.7,31.3-70,70-70c38.7,0,70,31.3,70,70C316,543.7,284.7,575,246,575z"/>
	<g>
		<path fill="#FFFFFF" d="M196.5,455.5c27.3-27.3,71.7-27.3,99,0c6.6,6.6,11.6,14.2,15,22.3c-3.4-8.1-8.4-15.7-15-22.3
			C268.2,428.2,223.8,428.2,196.5,455.5c-17.9,17.9-24.1,43.2-18.5,66.2C172.4,498.7,178.6,473.4,196.5,455.5z"/>
		<path fill="#FFFFFF" d="M311.5,480.2c1.4,3.7,2.5,7.5,3.3,11.4C314,487.8,312.9,483.9,311.5,480.2z"/>
		<path fill="#FFFFFF" d="M179.1,525.7c-0.4-1.3-0.8-2.7-1.1-4.1C178.3,523,178.7,524.4,179.1,525.7z"/>
		<path fill="#FFFFFF" d="M315.5,496.5c0.1,0.9,0.2,1.9,0.3,2.8C315.7,498.3,315.6,497.4,315.5,496.5z"/>
		<path fill="#FFFFFF" d="M315.8,499.3c1.6,19.8-5.1,40.1-20.3,55.2c-27.3,27.3-71.7,27.3-99,0c-6-6-10.7-12.8-14-20
			c3.4,7.2,8,14,14,20c27.3,27.3,71.7,27.3,99,0C310.6,539.4,317.4,519,315.8,499.3z"/>
		<path fill="#FFFFFF" d="M310.5,477.8c0.3,0.8,0.6,1.6,0.9,2.4C311.2,479.4,310.9,478.6,310.5,477.8z"/>
		<path fill="#FFFFFF" d="M181.1,531.3c-0.8-1.8-1.4-3.7-2-5.6C179.7,527.6,180.4,529.5,181.1,531.3z"/>
		<path fill="#FFFFFF" d="M314.7,491.6c0.3,1.6,0.5,3.2,0.7,4.8C315.3,494.9,315,493.2,314.7,491.6z"/>
	</g>
	<path fill="#FFFFFF" d="M295.5,554.5c15.1-15.1,21.9-35.5,20.3-55.2c-0.1-0.9-0.2-1.9-0.3-2.8c-0.2-1.6-0.4-3.2-0.7-4.8
		c-0.7-3.9-1.8-7.7-3.3-11.4c-0.3-0.8-0.6-1.6-0.9-2.4c-3.4-8.1-8.4-15.7-15-22.3c-27.3-27.3-71.7-27.3-99,0
		c-17.9,17.9-24.1,43.2-18.5,66.2c0.3,1.4,0.7,2.7,1.1,4.1c0.6,1.9,1.2,3.8,2,5.6c0.4,1.1,0.9,2.1,1.4,3.1c3.4,7.2,8,14,14,20
		C223.8,581.8,268.2,581.8,295.5,554.5z"/>
	<polygon opacity="0.75" points="222.7,473.2 246,496.5 269.3,473.2 278.5,482.4 255.2,505.7 277.8,528.3 268.6,537.5 246,514.9 
		223.4,537.5 214.2,528.3 236.8,505.7 213.5,482.4 	"/>
</g>
</svg>
