<?xml version="1.0" encoding="utf-8"?>
<!-- Generator: Adobe Illustrator 18.1.1, SVG Export Plug-In . SVG Version: 6.00 Build 0)  -->
<svg version="1.1" xmlns="http://www.w3.org/2000/svg" xmlns:xlink="http://www.w3.org/1999/xlink" x="0px" y="0px"
	 viewBox="0 0 500 1000" enable-background="new 0 0 500 1000" xml:space="preserve">
<g id="Layer_2">
</g>
<g id="Layer_1">
	<g>
		<g>
			<defs>
				<path id="SVGID_5_" d="M-165,927c0,0,0-636,0-807.9c0,0,0,2.6,0-10.1s-11.5-40-11.5-40s-318.6-2.5-319.7,0
					c-7.1,16.2-11.8,23.4-11.8,40s0,10.1,0,10.1c0,171.9,0,806.9,0,806.9"/>
			</defs>
			<clipPath id="SVGID_2_">
				<use xlink:href="#SVGID_5_"  overflow="visible"/>
			</clipPath>
			<g id="Big_x5F_Can_3_" clip-path="url(#SVGID_2_)">
				<g id="Can_4_">
					<g>
						<polygon fill="#F2F2F2" points="-57.5,522.4 -339.4,522.4 -272.8,69.7 9.1,89.7 						"/>
					</g>
				</g>
			</g>
		</g>
	</g>
	<g>
		<g>
			<defs>
				<path id="SVGID_9_" d="M417,927c0,0,0-636,0-807.9c0,0,0,2.6,0-10.1s-11.5-40-11.5-40S86.9,66.5,85.8,69
					C78.7,85.2,74,92.4,74,109s0,10.1,0,10.1C74,291,74,926,74,926"/>
			</defs>
			<clipPath id="SVGID_3_">
				<use xlink:href="#SVGID_9_"  overflow="visible"/>
			</clipPath>
			<g id="Big_x5F_Can_4_" clip-path="url(#SVGID_3_)">
				<g id="Can_5_">
					<g>
						<polygon fill="#8297AD" points="242.6,522.4 -39.3,522.4 -2.7,79.7 309.2,79.7 						"/>
						<polygon fill="#F2F2F2" points="524.5,522.4 242.6,522.4 309.2,69.7 591.1,89.7 						"/>
					</g>
					<g>
						<linearGradient id="SVGID_4_" gradientUnits="userSpaceOnUse" x1="245.7919" y1="954.8771" x2="245.7919" y2="959.9052">
							<stop  offset="0" style="stop-color:#878787"/>
							<stop  offset="1" style="stop-color:#1D1D1D"/>
						</linearGradient>
						<polygon fill="url(#SVGID_4_)" points="86.1,955 85.9,959.8 195.2,959.8 296.3,959.8 405.7,959.8 405.5,955 						"/>
					</g>
					<defs>
						<filter id="Adobe_OpacityMaskFilter" filterUnits="userSpaceOnUse" x="75.9" y="59" width="339.7" height="16">
							<feColorMatrix  type="matrix" values="1 0 0 0 0  0 1 0 0 0  0 0 1 0 0  0 0 0 1 0"/>
						</filter>
					</defs>
					<mask maskUnits="userSpaceOnUse" x="75.9" y="59" width="339.7" height="16" id="SVGID_6_">
						<g filter="url(#Adobe_OpacityMaskFilter)">
							<g>
								<path d="M393.5,49.1c0.7,0,1.4-0.1,2.1-0.1c-0.4-0.9-0.5-2-0.5-3.2c0-2,0.3-4.2,0.4-6.1c0,0,0,0,0,0c0-0.1,0-0.3,0-0.5
									c0-0.1,0-0.1,0-0.2c0,0,0,0,0,0c0-1.2,0-3,0-3.8c0-1,0-1.6,0-2.6c-49.9,2.9-99.7,4.5-149.7,4.7c-50-0.3-99.8-1.8-149.7-4.7
									c0,1,0,1.6,0,2.6c0,0.9,0,2.6,0,3.8c0,0,0,0,0,0c0,0.1,0,0.1,0,0.2c0,0.2,0,0.3,0,0.5c0,0,0,0,0,0c0.1,1.7,0.3,3.7,0.4,5.5
									c0,1.4-0.1,2.8-0.5,3.8c1.4,0.1,2.7,0.2,4.1,0.2c48.5,2.7,97.1,4.2,145.8,4.4C295.1,53.4,344.3,51.9,393.5,49.1z"/>
								<path fill="#161616" d="M96.1,32.6c0,1,0,1.5,0,2.5c0,0.6,0,1.5,0,2.4c0,0.5,0,0.9,0,1.3c0,0,0,0,0,0c0,0.1,0,0.1,0,0.2
									c0,0.2,0,0.3,0,0.4c0,0,0,0,0,0c0.1,1.7,0.3,3.6,0.3,5.3c0.1,1.3,0.2,2.5-0.1,3.5c1.4,0.1,2.7,0.2,4.1,0.2
									c48.4,2.7,96.9,4.7,145.4,4.3c49.2-0.5,98.3-1.6,147.4-4.4c0.7,0,1.4-0.1,2.1-0.1c-0.3-0.8-0.3-1.8-0.2-2.9
									c0-1.9,0.3-4,0.3-5.8c0,0,0,0,0,0c0-0.1,0-0.3,0-0.5c0-0.1,0-0.1,0-0.2c0,0,0,0,0,0c0-0.2,0-0.5,0-0.7c0-1,0-2.2,0-2.9
									c0-1,0-1.5,0-2.5c-49.9,2.9-99.7,4.7-149.7,4.7c-25,0-49.9-0.6-74.9-1.4C146,35.2,121,34.1,96.1,32.6z"/>
								<path fill="#2C2C2C" d="M96.1,32.6c0,0.9,0,1.4,0,2.4c0,0.5,0,1.4,0,2.2c0,0.4,0,0.8,0,1.2c0,0,0,0,0,0c0,0,0,0.1,0,0.2
									c0,0.2,0,0.3,0,0.4c0,0,0,0,0,0c0,1.6,0.3,3.4,0.3,5.1c0.3,1.2,0.4,2.3,0.3,3.1c1.4,0.1,2.7,0.1,4.1,0.2
									c48.3,2.6,96.7,4.5,145.1,4.1c49.1-0.4,98.1-1.6,147.1-4.3c0.7,0,1.4-0.1,2.1-0.1c-0.1-0.7,0-1.7,0.2-2.7
									c0-1.8,0.3-3.8,0.3-5.6c0,0,0,0,0,0c0-0.1,0-0.3,0-0.4c0-0.1,0-0.1,0-0.2c0,0,0,0,0,0c0-0.2,0-0.5,0-0.7c0-1,0-2.1,0-2.8
									c0-0.9,0-1.4,0-2.3c-49.9,2.9-99.7,4.7-149.7,4.7c-25,0-49.9-0.6-74.9-1.4C146,35.2,121,34.1,96.1,32.6z"/>
								<path fill="#424242" d="M96.1,32.6c0,0.9,0,1.4,0,2.3c0,0.5,0,1.3,0,2.1c0,0.4,0,0.8,0,1.1c0,0,0,0,0,0c0,0,0,0.1,0,0.1
									c0,0.1,0,0.3,0,0.4c0,0,0,0,0,0c0,1.5,0.2,3.3,0.3,4.8c0.4,1.1,0.6,2,0.7,2.8c1.4,0.1,2.7,0.1,4.1,0.2
									c48.2,2.5,96.5,4.4,144.7,4c49-0.4,97.9-1.5,146.8-4.1c0.7,0,1.4-0.1,2.1-0.1c0-0.7,0.2-1.5,0.5-2.4c0-1.7,0.2-3.6,0.3-5.3
									c0,0,0,0,0,0c0-0.1,0-0.3,0-0.4c0,0,0-0.1,0-0.1c0,0,0,0,0,0c0-0.2,0-0.4,0-0.7c0-0.9,0-2,0-2.6c0-0.9,0-1.3,0-2.2
									c-49.9,2.9-99.7,4.7-149.7,4.7c-25,0-49.9-0.6-74.9-1.4C146,35.2,121,34.1,96.1,32.6z"/>
								<path fill="#585858" d="M96.1,32.6c0,0.9,0,1.3,0,2.1c0,0.5,0,1.3,0,2c0,0.4,0,0.7,0,1.1c0,0,0,0,0,0c0,0,0,0.1,0,0.1
									c0,0.1,0,0.3,0,0.4c0,0,0,0,0,0c0,1.4,0.2,3.1,0.2,4.6c0.5,0.9,0.9,1.8,1,2.5c1.4,0.1,2.7,0.1,4.1,0.2
									c48.1,2.5,96.2,4.2,144.4,3.9c48.9-0.3,97.7-1.5,146.5-4c0.7,0,1.4-0.1,2.1-0.1c0.1-0.6,0.4-1.3,0.8-2.1
									c0-1.6,0.2-3.5,0.2-5c0,0,0,0,0,0c0-0.1,0-0.2,0-0.4c0,0,0-0.1,0-0.1c0,0,0,0,0,0c0-0.2,0-0.4,0-0.6c0-0.9,0-1.9,0-2.4
									c0-0.8,0-1.3,0-2.1c-49.9,2.9-99.7,4.7-149.7,4.7c-25,0-49.9-0.6-74.9-1.4C146,35.2,121,34.1,96.1,32.6z"/>
								<path fill="#6E6E6E" d="M96.1,32.6c0,0.8,0,1.3,0,2c0,0.5,0,1.2,0,1.9c0,0.3,0,0.7,0,1c0,0,0,0,0,0c0,0,0,0.1,0,0.1
									c0,0.1,0,0.2,0,0.4c0,0,0,0,0,0c0,1.4,0.2,3,0.2,4.4c0.6,0.8,1.1,1.6,1.4,2.1c1.3,0.1,2.7,0.1,4,0.2c48,2.4,96,4,144,3.8
									c48.7-0.3,97.5-1.4,146.2-3.9c0.7,0,1.4-0.1,2.1-0.1c0.3-0.5,0.7-1.1,1.2-1.8c0-1.5,0.2-3.3,0.2-4.8c0,0,0,0,0,0
									c0-0.1,0-0.2,0-0.4c0,0,0-0.1,0-0.1c0,0,0,0,0,0c0-0.2,0-0.4,0-0.6c0-0.8,0-1.7,0-2.3c0-0.7,0-1.2,0-2
									c-49.9,2.9-99.7,4.7-149.7,4.7c-25,0-49.9-0.6-74.9-1.4C146,35.2,121,34.1,96.1,32.6z"/>
								<path fill="#848484" d="M96.1,32.6c0,0.8,0,1.2,0,1.9c0,0.5,0,1.1,0,1.8c0,0.3,0,0.6,0,0.9c0,0,0,0,0,0c0,0,0,0.1,0,0.1
									c0,0.1,0,0.2,0,0.3c0,0,0,0,0,0c0,1.3,0.2,2.8,0.2,4.1c0.7,0.7,1.3,1.3,1.8,1.8c1.3,0.1,2.7,0.1,4,0.2
									c47.9,2.3,95.8,3.8,143.7,3.6c48.6-0.2,97.3-1.3,145.9-3.7c0.7,0,1.4-0.1,2.1-0.1c0.4-0.4,0.9-1,1.5-1.5
									c0-1.4,0.1-3.1,0.2-4.5c0,0,0,0,0,0c0-0.1,0-0.2,0-0.3c0,0,0-0.1,0-0.1c0,0,0,0,0,0c0-0.2,0-0.4,0-0.5c0-0.8,0-1.6,0-2.1
									c0-0.7,0-1.1,0-1.8c-49.9,2.9-99.7,4.7-149.7,4.7c-25,0-49.9-0.6-74.9-1.4C146,35.2,121,34.1,96.1,32.6z"/>
								<path fill="#9A9A9A" d="M96.1,32.6c0,0.7,0,1.2,0,1.8c0,0.5,0,1,0,1.7c0,0.3,0,0.6,0,0.8c0,0,0,0,0,0c0,0,0,0.1,0,0.1
									c0,0.1,0,0.2,0,0.3c0,0,0,0,0,0c0,1.2,0.1,2.7,0.1,3.9c0.8,0.6,1.6,1.1,2.2,1.5c1.3,0.1,2.7,0.1,4,0.2
									c47.8,2.3,95.6,3.4,143.3,3.5c48.5-0.1,97.1-1.3,145.6-3.6c0.7,0,1.4-0.1,2.1-0.1c0.5-0.4,1.2-0.8,1.9-1.3
									c0-1.3,0.1-2.9,0.1-4.2c0,0,0,0,0,0c0-0.1,0-0.2,0-0.3c0,0,0-0.1,0-0.1c0,0,0,0,0,0c0-0.2,0-0.3,0-0.5c0-0.8,0-1.5,0-2
									c0-0.6,0-1,0-1.7c-49.9,2.9-99.7,4.7-149.7,4.7c-25,0-49.9-0.6-74.9-1.4C146,35.2,121,34.1,96.1,32.6z"/>
								<path fill="#B0B0B0" d="M96.1,32.6c0,0.7,0,1.1,0,1.7c0,0.4,0,1,0,1.6c0,0.2,0,0.5,0,0.8c0,0,0,0,0,0c0,0,0,0.1,0,0.1
									c0,0.1,0,0.2,0,0.3c0,0,0,0,0,0c0,1.1,0.1,2.5,0.1,3.7c0.9,0.4,1.8,0.8,2.6,1.2c1.3,0.1,2.7,0.1,4,0.2
									c47.7,2.2,95.3,3.3,143,3.4c48.4-0.1,96.9-1.2,145.3-3.5c0.7,0,1.4-0.1,2.1-0.1c0.7-0.3,1.4-0.6,2.2-1
									c0-1.2,0.1-2.7,0.1-3.9c0,0,0,0,0,0c0-0.1,0-0.2,0-0.3c0,0,0-0.1,0-0.1c0,0,0,0,0,0c0-0.2,0-0.3,0-0.5c0-0.7,0-1.4,0-1.8
									c0-0.5,0-1,0-1.6c-49.9,2.9-99.7,4.7-149.7,4.7c-25,0-49.9-0.6-74.9-1.4C146,35.2,121,34.1,96.1,32.6z"/>
								<path fill="#C6C6C6" d="M96.1,32.6c0,0.6,0,1,0,1.6c0,0.4,0,0.9,0,1.5c0,0.2,0,0.5,0,0.7c0,0,0,0,0,0c0,0,0,0.1,0,0.1
									c0,0.1,0,0.2,0,0.3c0,0,0,0,0,0c0,1.1,0.1,2.4,0.1,3.4c1,0.3,2,0.6,3,0.8c1.3,0.1,2.7,0.1,4,0.2
									c47.6,2.1,95.1,3.2,142.7,3.2c48.3,0,96.7-1.1,145-3.3c0.7,0,1.4-0.1,2.1-0.1c0.8-0.2,1.7-0.4,2.5-0.7
									c0-1.1,0.1-2.6,0.1-3.7c0,0,0,0,0,0c0-0.1,0-0.2,0-0.3c0,0,0-0.1,0-0.1c0,0,0,0,0,0c0-0.1,0-0.3,0-0.4c0-0.7,0-1.2,0-1.7
									c0-0.5,0-0.9,0-1.5c-49.9,2.9-99.7,4.7-149.7,4.7c-25,0-49.9-0.6-74.9-1.4C146,35.2,121,34.1,96.1,32.6z"/>
								<path fill="#DCDCDC" d="M96.1,32.6c0,0.6,0,1,0,1.4c0,0.4,0,0.8,0,1.4c0,0.2,0,0.4,0,0.6c0,0,0,0,0,0c0,0,0,0.1,0,0.1
									c0,0.1,0,0.2,0,0.2c0,0,0,0,0,0c0,1,0,2.2,0,3.2c1.1,0.2,2.3,0.4,3.4,0.5c1.3,0.1,2.7,0.1,4,0.2c47.5,2,94.9,3.1,142.3,3.1
									c48.2,0,96.5-1.1,144.7-3.2c0.7,0,1.4-0.1,2.1-0.1c0.9-0.1,1.9-0.3,2.9-0.4c0-1,0-2.4,0-3.4c0,0,0,0,0,0c0-0.1,0-0.2,0-0.3
									c0,0,0-0.1,0-0.1c0,0,0,0,0,0c0-0.1,0-0.3,0-0.4c0-0.6,0-1.1,0-1.5c0-0.4,0-0.8,0-1.3c-49.9,2.9-99.7,4.7-149.7,4.7
									c-25,0-49.9-0.6-74.9-1.4C146,35.2,121,34.1,96.1,32.6z"/>
								<path fill="#F2F2F2" d="M395.5,39c0-1.2,0-3,0-3.8c0-1,0-1.6,0-2.6c-49.9,2.9-99.7,4.5-149.7,4.7c-25-0.1-49.9-0.6-74.9-1.4
									c-24.9-0.8-49.9-1.9-74.8-3.3c0,1,0,1.6,0,2.6c0,0.9,0,2.6,0,3.8c49.9,2.2,99.8,3.3,149.7,3.3
									C295.7,42.4,345.6,41.3,395.5,39z"/>
							</g>
						</g>
					</mask>
					<path mask="url(#SVGID_6_)" fill="#B3B3B3" d="M415.5,59.7C415.5,59.7,415.5,59.7,415.5,59.7c0-0.1,0-0.3,0-0.5
						c0-0.1,0-0.1,0-0.2c0,0,0,0,0,0c-99.9,4.4-239.6,4.4-339.4,0c0,0,0,0,0,0c0,0.1,0,0.1,0,0.2c0,0.2,0,0.3,0,0.5c0,0,0,0,0,0
						c0.1,3.1,0.9,7-0.1,9.3c49.9,2.9,119.7,5.7,169.7,6c50-0.3,120.1-3.1,170-6C414.6,66.7,415.4,62.8,415.5,59.7z"/>
				</g>
				<g>
					<polygon fill="none" points="175.3,886 167.1,925.9 176.3,886 					"/>
					<polygon fill="#8297AD" points="489.9,850 491.4,825 524.5,522 242.6,522 182,850 					"/>
					<polygon fill="#8297AD" points="167.1,926 481,936 487.4,886 175.3,886 					"/>
					<polygon fill="#F2F2F2" points="-76.4,886 -82.8,926 167.1,926 175.3,886 					"/>
					<polygon fill="#8297AD" points="180.1,850 182,850 242.6,522 182.5,824.9 					"/>
					<polygon fill="#F2F2F2" points="242.6,522 242.6,522 242.6,522 -39.3,522 -72.4,825 -74,850 180.1,850 182,850 242.5,522.5 
						242.6,522 					"/>
					<polygon fill="#F2F2F2" points="182,850 178,871.4 177.5,877 178,871.4 175.3,886 175.3,886 487.4,886 487.8,882.9 489.9,850 
											"/>
					<polygon fill="#8297AD" points="182,850 180.1,850 -74,850 -76,882.9 -76.4,886 175.3,886 178,871.3 178,871.3 					"/>
				</g>
				<rect x="74.9" y="79.8" opacity="0.1" fill="#1A1A1A" width="343" height="19.6"/>
			</g>
		</g>
		<rect x="74" y="63" fill="#E6E6E6" width="343" height="16.7"/>
		
			<text transform="matrix(1 0 0 1 110.0009 612.3046)" fill="#ED2C3A" font-family="'Futura-Medium'" font-size="28.1769" letter-spacing="5">ENERGY DRINK</text>
		<g>
			<path fill-rule="evenodd" clip-rule="evenodd" fill="#ED2C3A" d="M155.7,437.5h16.7c0,0-0.7-7.9-8.2-7.9S155.7,437.5,155.7,437.5
				L155.7,437.5L155.7,437.5z M164.4,420.1c22.5,0,21.6,21.9,21.6,21.9v3.5h-30.5c0,5,4.2,9.3,9.9,9.3c5.7,0,8.6-5.4,8.6-5.4
				l10.8,5.3c-5,7.5-11.7,10.5-19.2,10.5c-23.4,0-23.9-19.5-23.9-21.9S141.9,420.1,164.4,420.1L164.4,420.1L164.4,420.1z
				 M214.5,452.9L214.5,452.9c-0.7,0-9.4,0.1-9.4-10.5c0-10.7,9.5-11,9.5-11s10.7,0.3,10.7,10.8
				C225.3,452.6,215.2,452.9,214.5,452.9L214.5,452.9L214.5,452.9z M224.7,393v32.1c0,0-6.5-5-13.9-5c-7.4,0-19.9,5.2-19.9,21.7
				c0,16.5,10.7,22.7,19.8,22.7c9.2,0,14.3-6,14.3-6v5.4h13.2V393H224.7L224.7,393z M313.8,422.3h13.4v23.8c0,0,0.5,8,8,8
				c7.5,0,7.4-8,7.4-8v-23.6h13.6v24.5c0,0,1.7,19.1-20.6,19.1c-22.4,0-21.8-16.8-21.8-19.8C313.8,443.2,313.8,422.3,313.8,422.3
				L313.8,422.3L313.8,422.3z M364,393h13.3v70.9H364V393L364,393z M386.6,393h13.1v70.9h-13.1V393L386.6,393z M286.8,452L286.8,452
				h-12.6v-44.3h6.7c0,0,9.1-0.7,9.1,7.3c0,8-7.3,7.3-7.3,7.3h-4.2v11.9c0,0,6,0,8.2,0c2.1,0,9,1,9,8.9
				C295.8,450.9,286.8,452,286.8,452L286.8,452L286.8,452z M298.1,426.9c0,0,6.1-4.8,6.1-13.8c0-9.1-6.6-17.2-20.6-17.2
				c-14,0-23.5,0-23.5,0l0,68h28.9c0,0,20.7-0.2,20.7-18.9C309.8,434,305.6,429.9,298.1,426.9L298.1,426.9L298.1,426.9z M93.1,394.4
				v69.5h14v-56.2h6.6c0,0,10.3-0.5,10.3,8.9c0,9.4-9.2,9.2-9.2,9.2h-3.4v16l14,22.2H142l-19.6-28.4c0,0,16.1-1.4,16.1-18.9
				c0-17.5-12.2-22.2-28.4-22.2C93.9,394.4,93.1,394.4,93.1,394.4L93.1,394.4L93.1,394.4z"/>
		</g>
		<g>
			<path fill="#E6E6E6" d="M418,925.8c0,0-12.8,7.8-12.8,20.5l0.2,4.7H296.1H194.9H85.6l0.2-4.7c0-12.7-10.8-20.5-10.8-20.5H418z"/>
		</g>
	</g>
	<g>
		<path fill-rule="evenodd" clip-rule="evenodd" fill="#FFE50F" d="M146,527.1c-1.1-1-1.7-2.1-2-3.1c-0.3-1-0.8-2.2-0.8-3.2
			c0-4.7,2.8-8.2,5.7-9.8c1.3-0.7,1.8-1.2,2-1.5c-0.1,0-0.2-0.1-0.3-0.1c-4,0-6.1-1.6-7.1-2.9c-1-1.2-1.4-2.8-1.4-4.6
			c0-0.8,0.1-1.7,0.4-2.6c1.1-1.9,2.2-1.4,2.9-0.4c0.4,0.6,3.3,2.6,6.8,3c2.6,0.2,4,1.5,4.7,2.5c0.8,1.2,1.2,2.6,1.2,3.8
			c0,0.5-0.1,0.9-0.2,1.4c-0.4,1.6-2,3-4.4,4.8l-1.3,1.1c-1.9,1.7-3,3.5-3,5.1c0,0.4,0.1,0.8,0.2,1.1c0.1,0.1,0.1,0.3,0.2,0.4
			c0.9,1.5,3.3,2.4,6.8,1.1c1.6-0.6,4.8-2.5,6.7-4.4c2.2-2.2,5.2-2.8,8.1-3c2.5-0.2,4-0.8,5.1-2c3.2-3.6,6.3-4.1,9.2-4.3
			c1.1-0.1,1.2-0.2,1.3-0.4c1.6-2.1,3.2-3.2,4.7-3.9c1.1-0.5,2.1-0.7,3-0.9l1-0.2l0.3-0.1c1.6-0.5,2.9-0.9,6.1-3.2l0.1-0.1l0,0
			l0.1-0.1l0,0l0.1-0.1l0,0l0.1-0.1l0,0l0.1-0.1l0,0l0.1-0.1l0,0l0.1-0.1l0,0l0.1-0.1l0,0l0.1-0.1l0,0l0.1-0.1l0,0l0.1-0.1l0,0
			l0.1,0l0.1,0l0,0l0.1,0l0,0l0.1,0l0,0l0.1,0l0,0l0.1,0l0,0l0.1,0l0,0l0.1,0l0,0l0.1,0l0,0l0.1,0l0,0l0.1,0l0,0l0.1,0l0,0l0.1,0
			l0,0l0.1,0l0,0l0.1,0l0,0l0.1,0l0,0l0.1,0l0.2,0h0l0.1,0h0.2h0l0.1,0l0,0h0c0.1,0,0.2,0,0.3,0l0.1,0l0,0l0.1,0l0,0l0.1,0l0,0
			l0.1,0l0,0l0.1,0l0,0l0.1,0l0,0l0.1,0l0,0l0.1,0l0,0l0.1,0l0,0l0.1,0l0,0c0.2,0,0.4,0.1,0.6,0.1l0.1,0l0,0c0.2,0,0.4,0.1,0.6,0.2
			l0.1,0l0,0c0.4,0.1,0.7,0.2,1.1,0.4l0.1,0l0.1,0.1c7-9.5,18.1-15.8,30.7-16.4v0c0.2,0,0.4,0,0.6,0c0.2,0,0.4,0,0.6,0
			c0.2,0,0.4,0,0.6,0c0.2,0,0.4,0,0.6,0c0.2,0,0.4,0,0.6,0c0.2,0,0.4,0,0.6,0h0c0.2,0,0.4,0,0.6,0l0,0c12.2,0.7,22.9,6.9,29.8,16
			c1-0.3,2.1-0.6,3.2-0.7l0,0l0.1,0l0.1,0l0,0l0,0l0.1,0l0,0l0.1,0l0,0l0.1,0h0l0.1,0h0l0.1,0l0.1,0l0,0l0.1,0l0,0l0.1,0l0,0l0.1,0
			l0,0l0.1,0l0,0c0.3,0,0.5,0.1,0.8,0.1l0.1,0l0,0l0.1,0l0,0l0.1,0l0,0l0.1,0l0,0l0.1,0l0,0l0.1,0l0,0l0.1,0l0,0l0.1,0l0.1,0l0,0
			l0.1,0l0,0l0.1,0l0,0c0.2,0.1,0.4,0.2,0.6,0.3l0,0l0.1,0.1l0,0l0.1,0.1l0,0l0.1,0.1l0,0l0.1,0.1v0l0.1,0.1
			c2.3,1.5,3.6,2.2,4.7,2.7c0.5,0.2,1,0.3,1.5,0.5l0.3,0.1l1,0.2c0.6,0.1,1.2,0.3,1.9,0.5c1.7,0.6,3.8,1.7,5.8,4.3
			c0.1,0.2,0.2,0.3,1.3,0.4c2.9,0.2,6,0.7,9.2,4.3c1.1,1.2,2.6,1.8,5.1,2c2.9,0.2,5.9,0.8,8.1,3c1.9,1.9,5,3.9,6.7,4.4
			c3.5,1.2,6,0.3,6.8-1.1c0.2-0.3,0.3-0.6,0.4-1c0-0.2,0-0.4,0-0.6c0-1.6-1.1-3.5-3-5.1l-0.2-0.2l-1.1-0.9c-2.3-1.8-4-3.2-4.4-4.8
			c-0.1-0.4-0.2-0.9-0.2-1.4c0-1.2,0.3-2.6,1.1-3.8c0.7-1,2.1-2.3,4.7-2.5c3.6-0.3,6.4-2.4,6.8-3c0.7-1,1.7-1.5,2.9,0.4
			c0.2,0.9,0.4,1.8,0.4,2.6c0,1.8-0.5,3.3-1.4,4.6c-1,1.3-3.1,2.9-7.1,2.9c-0.1,0-0.2,0-0.3,0.1c0.2,0.3,0.7,0.8,2,1.5
			c3,1.6,5.7,5.1,5.7,9.8c0,1-0.4,2.3-0.8,3.2c-0.3,0.8-0.8,1.8-1.7,2.8c-0.1,0.1-0.2,0.2-0.3,0.3c-1.7,1.5-4.4,2.8-9,2.5
			c-0.5,0-0.9-0.1-1.5-0.1c-0.1,2.3-0.8,5.1-1.7,6.5c-0.3,0.4-0.3,0.7-0.3,0.9c0,0.1,0,0.1,0,0.1c0,0,2,1.2,2,1.2l0.3,0.2
			c0,0,0.2,0.1,0.2,0.1c0,0,0.7,0,0.7,0l0.1,0l0,0c1.3-0.1,3.2-0.7,4,1.6c0.2,0.6,0.3,1.1,0.5,1.6c0.3,1,0.5,1.7,1.3,2.3
			c0,0,0.4-0.4,0.9-0.8c0.4-0.3,0.8-0.7,1.1-1c0.6-0.6,1.7-0.3,2.4,0c0.8,0.3,1.8,1,2.5,1.4c0.7,0.4,1.1,0.9,1.3,1.5
			c0.2,0.6,0.7,1,1.4,1.4c0.7,0.4,1.7,1.7,1.7,3.4c0,0.3,0,0.5,0.1,0.7c0.1,0.2,0.1,0.3,0.2,0.5c1,2,0.2,3-0.4,3.4
			c-0.8,0.6-2.1,0.8-3.4,0.6l0,0.3l-1.9-0.2c-0.7-0.1-1.7,0.1-2.2,0.2l-0.1,0c-1.3,0.3-3.1-0.2-4-1.8c0-0.1-0.1-0.1-0.1-0.2
			c-0.5-0.9-1.3-1.7-1.7-1.9c-0.6,0.2-1.4,0.4-2.4,0.2c-1-0.1-2.1-0.5-3.2-1.4c-0.2-0.2-0.4-0.3-0.6-0.5c-1.7-1.7-3.8-2-5.2-1.8
			l-0.8,0.1c-1.7,0.3-3.8,0.7-5.7-0.5c-0.5-0.3-1.2-0.6-1.9-0.9c-1.8-0.8-3.6-1.6-3.8-3.2c0-0.3-0.4-0.8-0.6-1.3
			c-0.2-0.4-0.5-0.8-0.7-1.3c-0.2-0.4-0.3-0.9-0.3-1.4c-0.6,0.1-1.2,0.2-1.8,0.2c-0.2,0-0.4,0-0.6-0.1l-0.8-0.1
			c-1.3-0.2-4-0.7-4.9-0.3c-1.7,0.6-7.1,0.9-8.6,0.6c0,0-0.5-0.1-1.1-0.2c-0.5,0.5-1,1-1.6,1.4c1.1,0.1,2-0.1,2.7,0.1l1.4,0.4
			c0.4-0.1,1.5-0.1,2.1-0.1l1.6,0.1l1.8,0.2c0.9,0.2,1.8,0.6,1.6,2.3c-0.1,0.5-0.4,1.3-0.8,1.7c-0.2,0.3-1.2,1.6-1.4,2.1L299,548
			c-0.4,0.8-0.9,1.5-2.5,1.5c-0.2,0-0.5,0-0.6,0c0,0.1-0.2,0.4-0.2,0.4c-0.4,0.8-0.9,2-1.9,2.6l-0.3,0.2c-0.8,0.6-2.1,1.5-4.2,0.8
			l-0.7-0.2c-1.8-0.6-4.4-1.6-5.8-2.3l-0.2-0.1c-1.3-0.7-1.5-0.8-2-0.8l-0.3,0c-1,0.1-2.8,0.4-4-1.7l-0.1-0.2
			c-6,8.2-14.9,14-25.3,16l0,0c-0.4,0.1-0.7,0.1-1.1,0.2l-0.1,0l-0.5,0.1c-0.2,0-0.4,0.1-0.6,0.1l-0.3,0l-0.5,0.1l-0.4,0
			c-0.2,0-0.5,0-0.7,0.1l-0.2,0c-0.2,0-0.5,0-0.7,0l-0.2,0c-0.3,0-0.5,0-0.8,0l-0.3,0c-0.3,0-0.6,0-0.8,0c-0.3,0-0.6,0-0.9,0l-0.3,0
			c-0.3,0-0.5,0-0.8,0l-0.3,0c-0.2,0-0.4,0-0.6,0l-0.3,0c-0.3,0-0.5,0-0.8-0.1l-0.4,0l-0.5-0.1l-0.3,0c-0.3,0-0.5-0.1-0.8-0.1
			l-0.3,0l-0.6-0.1l-0.3,0c-0.2,0-0.4-0.1-0.7-0.1l-0.5-0.1l-0.2-0.1c-0.3-0.1-0.7-0.1-1-0.2l-0.1,0l-0.5-0.1l-0.3-0.1
			c-0.3-0.1-0.6-0.2-0.9-0.3l-0.1,0c-9.1-2.6-16.8-8.3-22-15.9l-0.7,1c-1.2,2.1-3.1,1.8-4,1.7l-0.3,0c-0.5-0.1-0.7,0.1-2,0.8
			l-0.2,0.1c-1.3,0.7-4,1.7-5.8,2.3l-0.7,0.2c-2,0.7-3.4-0.2-4.1-0.8l-0.3-0.2c-1-0.7-1.5-1.8-1.9-2.6c0,0-0.1-0.2-0.2-0.4
			c-0.2,0-0.4,0-0.6,0c-1.6,0-2.1-0.7-2.5-1.5l-0.1-0.1c-0.2-0.4-1.2-1.8-1.4-2.1c-0.4-0.4-0.7-1.2-0.8-1.7
			c-0.2-1.7,0.8-2.1,1.6-2.3l1.8-0.2l1.6-0.1c0.6-0.1,1.7-0.1,2.1,0.1l1.4-0.4c0.6-0.2,1.6,0,2.7-0.1c-0.6-0.4-1.1-0.9-1.6-1.4
			c-0.5,0.1-1.1,0.2-1.1,0.2c-1.5,0.3-6.9,0-8.6-0.6c-0.9-0.3-3.6,0.1-4.9,0.3l-0.8,0.1c-0.8,0.1-1.6,0.1-2.4-0.1c0,1-0.6,1.9-1,2.6
			c-0.3,0.4-0.6,1-0.6,1.3c-0.2,1.7-2.1,2.5-3.8,3.2c-0.7,0.3-1.4,0.6-1.9,0.9c-1.9,1.2-4,0.8-5.7,0.5l-0.8-0.1
			c-1.4-0.2-3.5,0.1-5.2,1.8c-2.5,2.5-5,2-6.2,1.7c-0.4,0.2-1.2,1-1.7,1.9c-1,1.7-2.8,2.2-4.2,2l-0.1,0c-0.6-0.1-1.5-0.3-2.2-0.2
			l-1.9,0.2l0-0.3c-1.3,0.2-2.7,0-3.4-0.6c-0.6-0.4-1.4-1.4-0.4-3.4c0.2-0.5,0.3-0.8,0.3-1.3c0-1.7,1-3,1.7-3.4
			c0.7-0.4,1.2-0.8,1.4-1.4c0.2-0.6,0.6-1.1,1.3-1.5c0.7-0.4,1.7-1.1,2.4-1.4c0.8-0.3,1.9-0.6,2.5,0c0.6,0.6,2,1.8,2,1.8
			c1.2-1,1.1-2.1,1.8-3.9c0.8-2.3,2.7-1.7,4-1.6l0.1,0c0,0,0.7,0,0.7,0c0,0,0.2-0.1,0.2-0.1l0.3-0.2c0,0,2-1.2,2-1.2
			c0,0,0-0.1,0-0.1c0-0.1,0-0.4-0.3-0.9c-0.9-1.4-1.5-4.2-1.7-6.5c-0.3,0-0.6,0.1-0.9,0.1C150.6,530,147.7,528.7,146,527.1
			L146,527.1z M331.1,538.4l-0.1,0L331.1,538.4L331.1,538.4z M281.5,499.7c-0.3-0.1-0.5-0.1-0.8-0.1L281.5,499.7L281.5,499.7z
			 M283.6,500.4c-0.2-0.1-0.4-0.2-0.6-0.3L283.6,500.4L283.6,500.4z M248.7,564.5c0.2,0,0.4,0,0.6-0.1L248.7,564.5L248.7,564.5z
			 M246.7,564.7c0.2,0,0.5,0,0.7-0.1L246.7,564.7L246.7,564.7z M245.8,564.7c0.2,0,0.5,0,0.7,0L245.8,564.7L245.8,564.7z
			 M244.8,564.8c0.3,0,0.5,0,0.8,0L244.8,564.8L244.8,564.8z M242.8,564.8c0.3,0,0.6,0,0.9,0c0.3,0,0.6,0,0.8,0L242.8,564.8
			L242.8,564.8z M241.8,564.8c0.3,0,0.5,0,0.8,0L241.8,564.8L241.8,564.8z M240.8,564.7c0.2,0,0.4,0,0.6,0L240.8,564.7L240.8,564.7z
			 M239.8,564.6c0.3,0,0.5,0,0.8,0.1L239.8,564.6L239.8,564.6z M237.9,564.4c0.3,0,0.5,0.1,0.8,0.1L237.9,564.4L237.9,564.4z
			 M236,564.1c0.2,0,0.4,0.1,0.7,0.1L236,564.1L236,564.1z"/>
		<path fill-rule="evenodd" clip-rule="evenodd" fill="#ED2C3A" d="M207.9,513.9c-0.3-0.5-0.2-1,0.1-1.5c0.6-1,1.3,0.1,1.3,0.1
			c2.2,3.1,0.6,7.8,0.6,7.8C209.6,516,207.9,513.9,207.9,513.9L207.9,513.9z M227.2,534.6c0-0.9,0.1-3-0.8-3.7
			c-0.3-0.3-1.7-1.8-1.7-1.8c-0.2-0.4-0.4-0.4-0.4-0.4c-0.3,0-0.6,0.6-0.6,0.6c-1,1.9-1.9,1.6-1.9,1.6c0-0.3,0.2-0.7,0.2-0.7
			c0.3-0.5,1.4-2.7,1.4-2.7c0.1-0.3,0.3-0.8,0.3-0.8c0.9-1.4,1.8-0.3,1.8-0.3c0.4,0.8,2.5,3.3,2.5,3.3c0.5,0.6,0.5,1.1,0.5,1.1
			C228.9,534.3,227.2,534.6,227.2,534.6L227.2,534.6L227.2,534.6z M221.7,543.3c-0.4,0-0.5-0.2-0.4-0.6c0.3-1.2,1.2-1.7,1.2-1.7
			c1.8-1.1,2.1,0,2.1,0c0.3,2-1.2,2.2-1.2,2.2C223,543.3,221.7,543.3,221.7,543.3L221.7,543.3L221.7,543.3z M142.1,549
			c0,0,0.4,0.3,0.2,0.9c0,0-1,2.8-1,3.7c0,0-2.3,0.4-2.6-0.7c0,0-0.1-0.4,0.3-1.1c0,0,0.4-0.6,0.5-1.6c0,0,0-2.7,1.7-2
			C141.6,548.4,141.9,548.7,142.1,549L142.1,549L142.1,549z M144.9,544.5c0.4-0.3,0.9-0.5,1.4-0.4c1.1,0.2,0.4,1.2,0.4,1.2
			c-0.4,0.8-1.9,2.2-1.9,2.2c-1.3,1-2.3-0.2-2.3-0.2c-1-0.9,0.3-1.4,0.3-1.4C143.5,545.7,144.9,544.5,144.9,544.5L144.9,544.5
			L144.9,544.5z M158.1,527.8c0,0-0.4,4,1.4,7.5c0,0,1.3,1.9-0.1,3.1l-2.7,1.6c0,0-0.4,0.3-1.6,0.2c0,0-1.7-0.4-2.2,0.3
			c0,0-0.5,1.4-1.1,2.6c0,0-1.2,2.9-3.3,3.8c0,0-1.6,0.4-2.1,1.8c0,0-0.5,1-1.6,1c0,0-0.8,0.3-1.3,2c0,0-0.3,1.1-0.3,2
			c0,0,1.3-0.2,2.2,0.1c0,0,2.2,0.7,3.1-1.1c0,0,1.9-3.2,3.2-2.7c0,0,2.8,0.9,4.7-1.1c0,0,2.7-2.9,6.5-2.3c0,0,4.3,0.9,5.6-0.1
			c0,0,2.7-1.4,3.7-1.8c0,0,1.2-0.4,1.4-1.7c0,0,0.8-1.9,1.3-2.6l-2,0c0,0-1.9,3.1-5,4.1c0,0-1.7,0.7-5.2,0.1c0,0-5-1.1-9.3,3.6
			c0,0-0.6,0.9-1.4,0.5c0,0,2.4-4.1,7.7-5.1c0,0,1.7-0.4,3.2-0.1c0,0,7.1,0.2,10.4-6.8c0,0-0.4-6,1.2-7.4c0,0,0.6-0.2,0.5,1
			c0,0-1.1,6.3,1,7.5c0,0,1.2,0.9,3.4,0.6c0,0,3.3-0.8,6-0.3c0,0,4.1,1,7.7,0.5c0,0-0.9-1.4-0.7-3.1c0,0,0.5-1.2,1.1-0.4
			c0,0,1.4,4.5,5.1,5.9c0,0,3.3,1.2,3.3,5.5c0,0-0.5,0.6-4.9,2.2c0,0-1.7,0.5-2.2-0.7c0,0-2.1-4.6-4-4.4l-3.5,0.3
			c0,0-1.2,0.3-0.3,1.3c0,0,1.2,1.6,1.7,2.5c0,0,0.1,0.8,1.3,0.6c0,0,1.6-0.8,2.4,2.1c0,0,0.8,1.5,2.2,1.9c0,0,1.3,0.4,2.5-0.2
			c0,0,5.8-2.1,6.8-2.9c0,0,1.2-0.7,2.2-0.4c0,0,1.7,0.4,2.4-1l1.8-2.8c0,0,0.4-0.7,0.3-1.5c0,0,0.2-0.8-0.6-1.7
			c0,0-0.7-0.7-0.8-1.2l-1.3-3c0,0-0.5-0.8-1.1-1.1l-1.7,0.1c0,0,1.2,3,2,4.2c0,0,1.2,1.8,1.1,2.9c0,0-0.1,0.8-0.4,1.1
			c0,0-0.4,0.6-0.6,0.9c0,0-0.5,1.1-0.9,1.4c0,0-0.7,0.4-0.9,0.4c0,0-0.3,0.1-0.1-0.5c0,0,1-2,0.9-3.1c0,0,0.2-1.1-0.6-1.8
			c0,0-1.9-2.9-2.1-3.8c0,0-0.6-1.2-0.9-1.4c0,0-0.6-0.9,0.4-1.3c0,0,2.6-0.6,3.1-0.9c0,0,1.3-0.4,2.1-3c0,0,1.1-3,1.1-4.9
			c0,0,2.2,4.2-1.3,8.5c0,0,2.8,0.8,3.9,0c0,0,3.5-0.5,4.1-0.7c0,0,0.9-0.2,0.4,0.4c0,0-1,1.5-1.1,2.5c0,0-0.1,0.8-0.7,1.2
			c0,0-2,1.4-2.1,2.7c0,0-0.4,1.3,0.4,1c0,0,1.2-0.5,1.6,0c0,0,0.1,0.1-0.3,0.6c0,0-1.2,1-1.3,2.4c0,0,0.2,1.6,0.6,2.1
			c0,0,0.5,0.7,1.4,0.5c0,0,0.2-0.2,0.6-0.1c0,0,0.4,0,1.5-0.4c0,0,1.6-0.5,2.2-0.6c0,0,2.1-0.7,3.1-0.7c0,0,0.7-0.1,1.5,0.1
			c0,0,2.6,0.3,4.4-1.6c0,0,1.3-1.1,1.8,0c0,0,3.2,4.3,8.3,3.1c0,0-4.1-1.7-5.2-4c0,0-0.1-1.9-2.3-4.7c0,0-0.7-0.9,0-1.1
			c0,0,0.4-0.3,1.2,0.5c0,0,2,2,2.8,3.7c0,0,2.5,3.8,6.2,2.5c0,0-2.9-1.1-4.2-3.2c0,0-0.8-2.8-3.6-4.9c0,0-0.1-3.1-1.4-4.9
			c0,0-0.7-2.9-0.8-3.6c0,0-0.7-2.6-0.7-3.3c0,0,0.2-3.4-1.9-6c0,0-1.5-2.8-3.7-4.8c0,0-1.7-2.1-3-3.4c0,0-1.7-2-5.4-4.6
			c0,0-1.7-1.2-2.9-2.5c0,0-6.5-4.7-11.2-0.9c0,0-3.2,2.2-6,2.9c0,0-5.6,0.6-7.9,4.5c0,0-0.2,0.7-2.4,1c0,0-4.9-0.6-8.6,4.3
			c0,0-1.7,1.6-5,2c0,0-5.4-0.6-9,3.6c0,0-8.9,7.8-14.3,2.7c0,0-2.8-2.6,0.4-7.4c0,0,2-2.4,5.4-4.9c0,0,2.8-2,1.5-5
			c0,0-0.7-2.9-4.8-3c0,0-5.2-1-7.3-3.6c0,0-2.4,8.3,6.9,8.2c0,0,2.4,0.4,1.6,2.3c0,0-1.2,1.6-2.8,2.2c0,0-2.8,1.2-4,5.3
			c0,0-2.8,7.1,4.1,9.8C152.3,528.5,155.4,528.3,158.1,527.8L158.1,527.8L158.1,527.8z"/>
		<path fill-rule="evenodd" clip-rule="evenodd" fill="#ED2C3A" d="M278.2,513.9c0.3-0.5,0.2-1-0.1-1.5c-0.6-1-1.3,0.1-1.3,0.1
			c-2.2,3.1-0.6,7.8-0.6,7.8C276.5,516,278.2,513.9,278.2,513.9L278.2,513.9z M258.9,534.6c0-0.9-0.1-3,0.8-3.7
			c0.3-0.3,1.7-1.8,1.7-1.8c0.2-0.4,0.4-0.4,0.4-0.4c0.3,0,0.6,0.6,0.6,0.6c1,1.9,1.9,1.6,1.9,1.6c0-0.3-0.2-0.7-0.2-0.7
			c-0.3-0.5-1.4-2.7-1.4-2.7c-0.1-0.3-0.3-0.8-0.3-0.8c-0.9-1.4-1.8-0.3-1.8-0.3c-0.4,0.8-2.5,3.3-2.5,3.3c-0.5,0.6-0.5,1.1-0.5,1.1
			C257.2,534.3,258.9,534.6,258.9,534.6L258.9,534.6L258.9,534.6z M264.5,543.3c0.4,0,0.5-0.2,0.4-0.6c-0.3-1.2-1.2-1.7-1.2-1.7
			c-1.8-1.1-2.1,0-2.1,0c-0.3,2,1.2,2.2,1.2,2.2C263.1,543.3,264.5,543.3,264.5,543.3L264.5,543.3L264.5,543.3z M344,549
			c0,0-0.4,0.3-0.2,0.9c0,0,1,2.8,1,3.7c0,0,2.3,0.4,2.6-0.7c0,0,0.1-0.4-0.3-1.1c0,0-0.4-0.6-0.5-1.6c0,0,0-2.7-1.7-2
			C344.5,548.4,344.3,548.7,344,549L344,549L344,549z M341.3,544.5c-0.4-0.3-0.9-0.5-1.4-0.4c-1.1,0.2-0.4,1.2-0.4,1.2
			c0.4,0.8,1.9,2.2,1.9,2.2c1.3,1,2.3-0.2,2.3-0.2c1-0.9-0.3-1.4-0.3-1.4C342.6,545.7,341.3,544.5,341.3,544.5L341.3,544.5
			L341.3,544.5z M328,527.8c0,0,0.4,4-1.4,7.5c0,0-1.3,1.9,0.1,3.1l2.7,1.6c0,0,0.4,0.3,1.6,0.2c0,0,1.7-0.4,2.2,0.3
			c0,0,0.5,1.4,1.1,2.6c0,0,1.2,2.9,3.3,3.8c0,0,1.6,0.4,2.1,1.8c0,0,0.5,1,1.6,1c0,0,0.8,0.3,1.3,2c0,0,0.3,1.1,0.3,2
			c0,0-1.3-0.2-2.2,0.1c0,0-2.2,0.7-3.1-1.1c0,0-1.9-3.2-3.3-2.7c0,0-2.8,0.9-4.7-1.1c0,0-2.7-2.9-6.5-2.3c0,0-4.3,0.9-5.6-0.1
			c0,0-2.7-1.4-3.7-1.8c0,0-1.2-0.4-1.4-1.7c0,0-0.8-1.9-1.3-2.6l2,0c0,0,1.9,3.1,5,4.1c0,0,1.7,0.7,5.2,0.1c0,0,5-1.1,9.3,3.6
			c0,0,0.6,0.9,1.4,0.5c0,0-2.4-4.1-7.7-5.1c0,0-1.7-0.4-3.2-0.1c0,0-7.1,0.2-10.4-6.8c0,0,0.4-6-1.2-7.4c0,0-0.6-0.2-0.5,1
			c0,0,1.1,6.3-1,7.5c0,0-1.2,0.9-3.4,0.6c0,0-3.3-0.8-6-0.3c0,0-4.1,1-7.7,0.5c0,0,0.9-1.4,0.7-3.1c0,0-0.5-1.2-1.1-0.4
			c0,0-1.4,4.5-5.1,5.9c0,0-3.3,1.2-3.3,5.5c0,0,0.5,0.6,4.9,2.2c0,0,1.7,0.5,2.2-0.7c0,0,2.1-4.6,4-4.4l3.5,0.3
			c0,0,1.2,0.3,0.3,1.3c0,0-1.2,1.6-1.7,2.5c0,0-0.1,0.8-1.3,0.6c0,0-1.6-0.8-2.4,2.1c0,0-0.8,1.5-2.2,1.9c0,0-1.3,0.4-2.5-0.2
			c0,0-5.8-2.1-6.8-2.9c0,0-1.2-0.7-2.2-0.4c0,0-1.7,0.4-2.4-1l-1.8-2.8c0,0-0.4-0.7-0.3-1.5c0,0-0.2-0.8,0.6-1.7
			c0,0,0.7-0.7,0.8-1.2l1.3-3c0,0,0.5-0.8,1.1-1.1l1.7,0.1c0,0-1.2,3-2,4.2c0,0-1.2,1.8-1.1,2.9c0,0,0.1,0.8,0.4,1.1
			c0,0,0.4,0.6,0.6,0.9c0,0,0.5,1.1,0.9,1.4c0,0,0.7,0.4,0.9,0.4c0,0,0.3,0.1,0.1-0.5c0,0-1-2-0.9-3.1c0,0-0.2-1.1,0.6-1.8
			c0,0,1.9-2.9,2.1-3.8c0,0,0.6-1.2,0.9-1.4c0,0,0.6-0.9-0.4-1.3c0,0-2.6-0.6-3.1-0.9c0,0-1.3-0.4-2.1-3c0,0-1.1-3-1.1-4.9
			c0,0-2.2,4.2,1.3,8.5c0,0-2.8,0.8-3.9,0c0,0-3.5-0.5-4.1-0.7c0,0-0.9-0.2-0.4,0.4c0,0,1,1.5,1.1,2.5c0,0,0.1,0.8,0.7,1.2
			c0,0,2,1.4,2.1,2.7c0,0,0.4,1.3-0.4,1c0,0-1.2-0.5-1.6,0c0,0-0.1,0.1,0.3,0.6c0,0,1.2,1,1.3,2.4c0,0-0.2,1.6-0.6,2.1
			c0,0-0.5,0.7-1.4,0.5c0,0-0.2-0.2-0.6-0.1c0,0-0.4,0-1.5-0.4c0,0-1.6-0.5-2.2-0.6c0,0-2.1-0.7-3.1-0.7c0,0-0.7-0.1-1.5,0.1
			c0,0-2.6,0.3-4.4-1.6c0,0-1.3-1.1-1.8,0c0,0-3.2,4.3-8.3,3.1c0,0,4.1-1.7,5.2-4c0,0,0.1-1.9,2.3-4.7c0,0,0.7-0.9,0-1.1
			c0,0-0.4-0.3-1.2,0.5c0,0-2,2-2.8,3.7c0,0-2.5,3.8-6.2,2.5c0,0,2.9-1.1,4.2-3.2c0,0,0.8-2.8,3.6-4.9c0,0,0.1-3.1,1.4-4.9
			c0,0,0.7-2.9,0.8-3.6c0,0,0.7-2.6,0.7-3.3c0,0-0.2-3.4,1.9-6c0,0,1.5-2.8,3.7-4.8c0,0,1.7-2.1,3-3.4c0,0,1.7-2,5.4-4.6
			c0,0,1.7-1.2,2.9-2.5c0,0,6.5-4.7,11.2-0.9c0,0,3.2,2.2,6,2.9c0,0,5.6,0.6,7.9,4.5c0,0,0.2,0.7,2.4,1c0,0,4.9-0.6,8.6,4.3
			c0,0,1.7,1.6,5,2c0,0,5.4-0.6,9,3.6c0,0,8.9,7.8,14.3,2.7c0,0,2.8-2.6-0.4-7.4c0,0-2-2.4-5.4-4.9c0,0-2.8-2-1.5-5
			c0,0,0.7-2.9,4.8-3c0,0,5.2-1,7.3-3.6c0,0,2.4,8.3-6.9,8.2c0,0-2.4,0.4-1.6,2.3c0,0,1.2,1.6,2.8,2.2c0,0,2.8,1.2,4,5.3
			c0,0,2.8,7.1-4.1,9.8C333.8,528.5,330.8,528.3,328,527.8L328,527.8L328,527.8z"/>
	</g>
	<text transform="matrix(1 0 0 1 87 134)"><tspan x="0" y="0" fill="#FFE50F" font-family="'Futura-Medium'" font-size="18">Lightly Carbonated.</tspan><tspan x="0" y="21.6" fill="#FFE50F" font-family="'Futura-Medium'" font-size="18">Serve Chilled.</tspan></text>
	<text transform="matrix(1 0 0 1 189.0381 875.7824)" fill="#8297AD" font-family="'Futura-Medium'" font-size="19">Vitalizes Body and Mind.</text>
</g>
</svg>
